<?xml version="1.0" encoding="UTF-8"?>
<svg version="1.1" xmlns="http://www.w3.org/2000/svg" width="32" height="32">
<path d="M0 0 C10.56 0 21.12 0 32 0 C32 10.56 32 21.12 32 32 C21.44 32 10.88 32 0 32 C0 21.44 0 10.88 0 0 Z " fill="none" transform="translate(0,0)"/>
<path d="M0 0 C1.32 0 2.64 0 4 0 C4 0.99 4 1.98 4 3 C4.66 3 5.32 3 6 3 C5.42415568 5.38564077 4.77772405 7.66682784 4 10 C6.51083114 8.74458443 6.87125446 7.49936512 8 5 C8.66 5 9.32 5 10 5 C10 5.66 10 6.32 10 7 C11.32 6.67 12.64 6.34 14 6 C14.33 6.99 14.66 7.98 15 9 C14.34 9.66 13.68 10.32 13 11 C13 11.66 13 12.32 13 13 C10.69 13 8.38 13 6 13 C6 13.66 6 14.32 6 15 C8.31 15 10.62 15 13 15 C13.33 17.31 13.66 19.62 14 22 C12.02 22 10.04 22 8 22 C7.67 20.68 7.34 19.36 7 18 C6.01 18 5.02 18 4 18 C4.33 18.598125 4.66 19.19625 5 19.8125 C6 22 6 22 6 25 C5.34 25 4.68 25 4 25 C4 25.99 4 26.98 4 28 C2.68 28 1.36 28 0 28 C0 27.01 0 26.02 0 25 C-0.66 25 -1.32 25 -2 25 C-1.42415568 22.61435923 -0.77772405 20.33317216 0 18 C-0.99 18 -1.98 18 -3 18 C-3.33 19.32 -3.66 20.64 -4 22 C-5.98 22 -7.96 22 -10 22 C-9.67 19.69 -9.34 17.38 -9 15 C-6.69 15 -4.38 15 -2 15 C-2 14.34 -2 13.68 -2 13 C-4.31 13 -6.62 13 -9 13 C-9.33 10.69 -9.66 8.38 -10 6 C-8.68 6.33 -7.36 6.66 -6 7 C-6 6.34 -6 5.68 -6 5 C-5.01 5.33 -4.02 5.66 -3 6 C-2.67 6.99 -2.34 7.98 -2 9 C-1.34 9.33 -0.68 9.66 0 10 C-0.33 9.401875 -0.66 8.80375 -1 8.1875 C-2 6 -2 6 -2 3 C-1.34 3 -0.68 3 0 3 C0 2.01 0 1.02 0 0 Z " fill="#202020" transform="translate(14,2)"/>
<path d="M0 0 C0.99 0 1.98 0 3 0 C2.38722388 2.96175123 1.74627478 4.38058783 0 7 C0 6.34 0 5.68 0 5 C-0.99 4.67 -1.98 4.34 -3 4 C-2.34 3.67 -1.68 3.34 -1 3 C-0.67 2.01 -0.34 1.02 0 0 Z " fill="#CECECE" transform="translate(11,20)"/>
<path d="M0 0 C0.99 0 1.98 0 3 0 C3.33 0.99 3.66 1.98 4 3 C4.66 3.66 5.32 4.32 6 5 C5.01 5 4.02 5 3 5 C2.67 5.66 2.34 6.32 2 7 C0.5393715 4.35261084 0 3.10551666 0 0 Z " fill="#CECECE" transform="translate(18,20)"/>
</svg>
